<svg width="50" height="50" viewBox="0 0 50 50" fill="none" xmlns="http://www.w3.org/2000/svg">
<path d="M40.625 31.25H9.375C8.5462 31.25 7.75134 31.5792 7.16529 32.1653C6.57924 32.7513 6.25 33.5462 6.25 34.375V40.625C6.25 41.4538 6.57924 42.2487 7.16529 42.8347C7.75134 43.4208 8.5462 43.75 9.375 43.75H40.625C41.4538 43.75 42.2487 43.4208 42.8347 42.8347C43.4208 42.2487 43.75 41.4538 43.75 40.625V34.375C43.75 33.5462 43.4208 32.7513 42.8347 32.1653C42.2487 31.5792 41.4538 31.25 40.625 31.25ZM40.625 40.625H9.375V34.375H40.625V40.625ZM26.5625 12.2313L30.6031 16.2719L32.8125 14.0625L25 6.25L17.1875 14.0625L19.3969 16.2719L23.4375 12.2313V21.875H6.25V25H43.75V21.875H26.5625V12.2313Z" fill="#232829"/>
</svg>
