<svg width="1297" height="561" viewBox="0 0 1297 561" fill="none" xmlns="http://www.w3.org/2000/svg">
<path d="M246.265 360.965C237.284 342.283 231.521 322.621 232.071 301.566C232.687 278.022 243.529 259.601 265.825 250.907C276.838 246.613 288.26 246.075 299.1 251.795C309.323 257.189 318.68 271.432 313.455 287.689C307.842 305.354 297.077 307.886 294.68 317.431C292.938 324.366 294.555 330.161 299.748 335.1C306.103 341.144 309.193 348.715 309.469 357.43C309.88 370.457 302.667 381.906 291.207 386.654C268.868 394.455 252.329 373.576 246.265 360.965V360.965Z" fill="#5ED6F9"/>
<path d="M344.093 242.879C344.093 251.642 337.004 258.745 328.257 258.745C319.51 258.745 312.42 251.642 312.42 242.879C312.42 234.117 319.51 227.013 328.257 227.013C337.004 227.013 344.093 234.117 344.093 242.879Z" fill="#5ED6F9"/>
<path d="M341.811 234.672C339.037 230.082 334.005 227.013 328.257 227.013C319.51 227.013 312.42 234.117 312.42 242.879C312.42 251.642 319.51 258.745 328.257 258.745C328.257 258.745 326.079 254.888 326.079 250.536C326.079 241.807 333.114 234.728 341.811 234.672Z" fill="#12BDEF"/>
<path d="M305.896 231.831C305.896 236.996 301.717 241.184 296.562 241.184C291.407 241.184 287.227 236.996 287.227 231.831C287.227 226.667 291.407 222.48 296.562 222.48C301.717 222.48 305.896 226.667 305.896 231.831Z" fill="#5ED6F9"/>
<path d="M281.364 231.831C281.364 236.996 277.184 241.184 272.029 241.184C266.874 241.184 262.695 236.996 262.695 231.831C262.695 226.667 266.874 222.48 272.029 222.48C277.184 222.48 281.364 226.667 281.364 231.831Z" fill="#5ED6F9"/>
<path d="M257.898 241.184C257.898 246.348 253.719 250.535 248.564 250.535C243.409 250.535 239.229 246.348 239.229 241.184C239.229 236.019 243.409 231.831 248.564 231.831C253.719 231.831 257.898 236.019 257.898 241.184Z" fill="#5ED6F9"/>
<path d="M296.562 231.831C296.562 228.37 298.442 225.349 301.231 223.732C299.858 222.936 298.262 222.48 296.562 222.48C291.407 222.48 287.227 226.667 287.227 231.831C287.227 236.996 291.407 241.184 296.562 241.184C298.262 241.184 299.858 240.727 301.231 239.931C298.442 238.314 296.562 235.293 296.562 231.831Z" fill="#12BDEF"/>
<path d="M272.029 231.831C271.228 228.465 272.357 225.09 274.695 222.868C273.176 222.412 271.517 222.34 269.862 222.735C264.848 223.934 261.752 228.979 262.95 234.002C264.146 239.026 269.181 242.127 274.196 240.928C275.85 240.533 277.296 239.718 278.447 238.624C275.36 237.7 272.831 235.198 272.029 231.831Z" fill="#12BDEF"/>
<path d="M248.564 241.182C247.486 237.894 248.331 234.437 250.477 232.029C248.925 231.701 247.266 231.767 245.651 232.298C240.752 233.91 238.086 239.195 239.695 244.102C241.304 249.008 246.579 251.68 251.477 250.068C253.092 249.536 254.465 248.603 255.522 247.418C252.368 246.753 249.641 244.47 248.564 241.182Z" fill="#12BDEF"/>
<path d="M239.229 257.651C239.229 262.142 235.595 265.783 231.113 265.783C226.629 265.783 222.995 262.142 222.995 257.651C222.995 253.159 226.629 249.52 231.113 249.52C235.595 249.52 239.229 253.159 239.229 257.651Z" fill="#5ED6F9"/>
<path d="M230.134 253.395C230.134 251.307 231.113 249.52 231.113 249.52C226.629 249.52 222.995 253.161 222.995 257.651C222.995 262.142 226.629 265.783 231.113 265.783C234.195 265.783 236.875 264.061 238.25 261.526C233.767 261.526 230.134 257.885 230.134 253.395Z" fill="#12BDEF"/>
<path d="M265.918 305.417C265.62 267.018 295.379 257.304 304.23 255.33C302.592 253.912 300.859 252.723 299.1 251.795C288.26 246.075 276.838 246.613 265.826 250.907C243.529 259.601 232.688 278.022 232.071 301.566C231.521 322.621 237.284 342.283 246.266 360.965C252.329 373.576 268.868 394.455 291.208 386.654C294.533 385.277 297.499 383.336 300.026 380.955C288.544 350.793 266.179 338.842 265.918 305.417V305.417Z" fill="#12BDEF"/>
<path d="M404.361 328.615C418.34 310.602 430.357 291.11 438.315 269.268C447.215 244.844 446.611 224.238 433.779 212.033C427.44 206.004 419.311 203.799 409.123 208.147C399.514 212.246 387.024 225.618 384.384 243.175C381.469 262.244 388.326 266.416 386.287 276.627C384.806 284.047 381.324 289.803 375.569 294.159C368.527 299.489 363.264 306.868 359.601 315.836C354.129 329.241 354.851 342.117 361.335 348.679C374.554 359.967 394.925 340.774 404.361 328.615V328.615Z" fill="#5ED6F9"/>
<path d="M355.489 191.137C351.714 200.557 354.276 209.257 361.213 210.568C368.15 211.88 376.834 205.307 380.609 195.887C384.384 186.467 381.821 177.767 374.884 176.455C367.947 175.143 359.264 181.717 355.489 191.137Z" fill="#5ED6F9"/>
<path d="M361.118 182.852C365.251 178.363 370.508 175.835 375.018 176.691C381.881 177.995 384.417 186.638 380.682 195.997C376.947 205.356 368.355 211.887 361.492 210.584C361.492 210.584 364.845 206.788 366.701 202.14C370.421 192.817 367.919 184.208 361.118 182.852Z" fill="#12BDEF"/>
<path d="M394.946 189.985C392.262 195.717 393.029 200.846 396.659 201.439C400.289 202.032 405.408 197.865 408.092 192.132C410.776 186.4 410.008 181.272 406.378 180.679C402.748 180.086 397.63 184.252 394.946 189.985Z" fill="#5ED6F9"/>
<path d="M418.642 196.346C415.958 202.078 416.726 207.207 420.356 207.8C423.986 208.393 429.104 204.226 431.788 198.493C434.472 192.761 433.705 187.634 430.075 187.041C426.445 186.448 421.326 190.614 418.642 196.346Z" fill="#5ED6F9"/>
<path d="M438.892 211.464C436.208 217.196 436.975 222.324 440.605 222.917C444.235 223.51 449.354 219.344 452.038 213.612C454.721 207.879 453.954 202.75 450.324 202.157C446.694 201.564 441.575 205.732 438.892 211.464Z" fill="#5ED6F9"/>
<path d="M401.999 191.321C403.428 187.686 403.247 184.238 401.795 182.13C403.167 181.495 404.567 181.251 405.859 181.5C409.775 182.256 411.223 187.265 409.091 192.69C406.959 198.114 402.055 201.9 398.139 201.144C396.847 200.895 395.823 200.181 395.109 199.144C397.895 197.854 400.57 194.957 401.999 191.321Z" fill="#12BDEF"/>
<path d="M425.496 197.582C427.53 194.133 428.075 190.389 427.2 187.689C428.567 187.43 429.881 187.599 430.995 188.262C434.37 190.275 434.645 196.079 431.607 201.225C428.57 206.372 423.372 208.914 419.996 206.902C418.882 206.239 418.106 205.161 417.676 203.831C420.452 203.309 423.461 201.031 425.496 197.582Z" fill="#12BDEF"/>
<path d="M445.689 212.668C447.916 209.334 448.719 205.535 448.068 202.658C449.413 202.539 450.675 202.855 451.707 203.66C454.835 206.099 454.675 212.11 451.352 217.086C448.028 222.061 442.798 224.118 439.671 221.678C438.639 220.874 437.965 219.679 437.645 218.262C440.378 218.024 443.463 216.002 445.689 212.668Z" fill="#12BDEF"/>
<path d="M451.63 231.751C449.695 236.58 451.009 241.039 454.564 241.711C458.119 242.384 462.57 239.014 464.506 234.186C466.441 229.357 465.126 224.9 461.571 224.227C458.016 223.555 453.566 226.923 451.63 231.751Z" fill="#5ED6F9"/>
<path d="M460.743 228.618C461.634 226.385 461.628 224.329 461.628 224.329C465.152 224.997 466.454 229.432 464.537 234.233C462.619 239.036 458.207 242.386 454.683 241.718C452.26 241.258 450.888 239.017 450.89 236.101C454.414 236.77 458.825 233.419 460.743 228.618Z" fill="#12BDEF"/>
<path d="M413.174 269.079C428.284 229.747 410.828 215.521 405.282 212.228C406.999 211.009 408.697 210.038 410.312 209.339C420.262 205.027 428.2 207.215 434.388 213.196C446.918 225.307 447.503 245.75 438.809 269.98C431.033 291.649 419.295 310.985 405.64 328.855C396.424 340.917 376.528 359.956 363.621 348.756C361.783 346.867 360.421 344.452 359.543 341.649C379.433 312.365 400.021 303.316 413.174 269.079V269.079Z" fill="#12BDEF"/>
<mask id="path-25-outside-1_402_2" maskUnits="userSpaceOnUse" x="572" y="241" width="501" height="78" fill="black">
<rect fill="white" x="572" y="241" width="501" height="78"/>
<path d="M614.5 249H581V277H613.3V282H581V314H575.7V244H614.5V249ZM654.858 315.1C640.258 315.1 628.558 303.8 628.558 289C628.558 274.2 640.258 262.9 654.858 262.9C669.358 262.9 681.058 274.2 681.058 289C681.058 303.8 669.358 315.1 654.858 315.1ZM654.858 310.3C666.758 310.3 675.958 300.9 675.958 289C675.958 277.1 666.758 267.7 654.858 267.7C642.958 267.7 633.658 277.1 633.658 289C633.658 300.9 642.958 310.3 654.858 310.3ZM721.491 315.1C706.891 315.1 695.191 303.8 695.191 289C695.191 274.2 706.891 262.9 721.491 262.9C735.991 262.9 747.691 274.2 747.691 289C747.691 303.8 735.991 315.1 721.491 315.1ZM721.491 310.3C733.391 310.3 742.591 300.9 742.591 289C742.591 277.1 733.391 267.7 721.491 267.7C709.591 267.7 700.291 277.1 700.291 289C700.291 300.9 709.591 310.3 721.491 310.3ZM789.847 268.9H774.947V301.4C774.947 310.2 779.647 310.4 789.847 309.5V314C776.747 316 769.847 312.8 769.847 301.4V268.9H758.847V264H769.847V251.5L774.947 250V264H789.847V268.9ZM832.145 244C844.745 244 853.945 253.3 853.945 265.7C853.945 278 844.745 287.3 832.145 287.3H813.645V314H808.345V244H832.145ZM832.145 282.3C841.745 282.3 848.645 275.3 848.645 265.7C848.645 256 841.745 249 832.145 249H813.645V282.3H832.145ZM875.559 273.8C878.959 265.9 885.459 263.3 892.259 263.3V268.1C883.659 268.1 875.559 273.4 875.559 286.2V314H870.559V264H875.559V273.8ZM910.395 251.9C908.195 251.9 906.395 250.1 906.395 247.9C906.395 245.8 908.195 244 910.395 244C912.595 244 914.395 245.8 914.395 247.9C914.395 250.1 912.595 251.9 910.395 251.9ZM907.895 314V264H912.895V314H907.895ZM956.705 262.9C968.605 262.9 976.105 270.8 976.105 282.9V314H971.005V282.9C971.005 273.7 965.705 267.7 956.305 267.7C946.505 267.7 938.805 274.1 938.805 287.6V314H933.805V264H938.805V273.5C942.605 266.1 949.005 262.9 956.705 262.9ZM1021.35 268.9H1006.45V301.4C1006.45 310.2 1011.15 310.4 1021.35 309.5V314C1008.25 316 1001.35 312.8 1001.35 301.4V268.9H990.351V264H1001.35V251.5L1006.45 250V264H1021.35V268.9ZM1039.22 277.1C1039.22 290.5 1069.52 282.6 1069.52 300.9C1069.52 309.1 1062.32 315.1 1051.62 315.1C1041.62 315.1 1035.02 310.4 1032.62 304L1036.92 301.5C1038.72 306.9 1044.12 310.3 1051.62 310.3C1058.62 310.3 1064.52 307.2 1064.52 300.9C1064.52 287.3 1034.22 295.1 1034.22 277.1C1034.22 269.2 1041.02 262.9 1051.22 262.9C1059.32 262.9 1065.52 266.8 1068.22 272.9L1064.02 275.3C1061.92 270.1 1056.72 267.7 1051.22 267.7C1044.72 267.7 1039.22 271.1 1039.22 277.1Z"/>
</mask>
<path d="M614.5 249H581V277H613.3V282H581V314H575.7V244H614.5V249ZM654.858 315.1C640.258 315.1 628.558 303.8 628.558 289C628.558 274.2 640.258 262.9 654.858 262.9C669.358 262.9 681.058 274.2 681.058 289C681.058 303.8 669.358 315.1 654.858 315.1ZM654.858 310.3C666.758 310.3 675.958 300.9 675.958 289C675.958 277.1 666.758 267.7 654.858 267.7C642.958 267.7 633.658 277.1 633.658 289C633.658 300.9 642.958 310.3 654.858 310.3ZM721.491 315.1C706.891 315.1 695.191 303.8 695.191 289C695.191 274.2 706.891 262.9 721.491 262.9C735.991 262.9 747.691 274.2 747.691 289C747.691 303.8 735.991 315.1 721.491 315.1ZM721.491 310.3C733.391 310.3 742.591 300.9 742.591 289C742.591 277.1 733.391 267.7 721.491 267.7C709.591 267.7 700.291 277.1 700.291 289C700.291 300.9 709.591 310.3 721.491 310.3ZM789.847 268.9H774.947V301.4C774.947 310.2 779.647 310.4 789.847 309.5V314C776.747 316 769.847 312.8 769.847 301.4V268.9H758.847V264H769.847V251.5L774.947 250V264H789.847V268.9ZM832.145 244C844.745 244 853.945 253.3 853.945 265.7C853.945 278 844.745 287.3 832.145 287.3H813.645V314H808.345V244H832.145ZM832.145 282.3C841.745 282.3 848.645 275.3 848.645 265.7C848.645 256 841.745 249 832.145 249H813.645V282.3H832.145ZM875.559 273.8C878.959 265.9 885.459 263.3 892.259 263.3V268.1C883.659 268.1 875.559 273.4 875.559 286.2V314H870.559V264H875.559V273.8ZM910.395 251.9C908.195 251.9 906.395 250.1 906.395 247.9C906.395 245.8 908.195 244 910.395 244C912.595 244 914.395 245.8 914.395 247.9C914.395 250.1 912.595 251.9 910.395 251.9ZM907.895 314V264H912.895V314H907.895ZM956.705 262.9C968.605 262.9 976.105 270.8 976.105 282.9V314H971.005V282.9C971.005 273.7 965.705 267.7 956.305 267.7C946.505 267.7 938.805 274.1 938.805 287.6V314H933.805V264H938.805V273.5C942.605 266.1 949.005 262.9 956.705 262.9ZM1021.35 268.9H1006.45V301.4C1006.45 310.2 1011.15 310.4 1021.35 309.5V314C1008.25 316 1001.35 312.8 1001.35 301.4V268.9H990.351V264H1001.35V251.5L1006.45 250V264H1021.35V268.9ZM1039.22 277.1C1039.22 290.5 1069.52 282.6 1069.52 300.9C1069.52 309.1 1062.32 315.1 1051.62 315.1C1041.62 315.1 1035.02 310.4 1032.62 304L1036.92 301.5C1038.72 306.9 1044.12 310.3 1051.62 310.3C1058.62 310.3 1064.52 307.2 1064.52 300.9C1064.52 287.3 1034.22 295.1 1034.22 277.1C1034.22 269.2 1041.02 262.9 1051.22 262.9C1059.32 262.9 1065.52 266.8 1068.22 272.9L1064.02 275.3C1061.92 270.1 1056.72 267.7 1051.22 267.7C1044.72 267.7 1039.22 271.1 1039.22 277.1Z" fill="#202020"/>
<path d="M614.5 249V252H617.5V249H614.5ZM581 249V246H578V249H581ZM581 277H578V280H581V277ZM613.3 277H616.3V274H613.3V277ZM613.3 282V285H616.3V282H613.3ZM581 282V279H578V282H581ZM581 314V317H584V314H581ZM575.7 314H572.7V317H575.7V314ZM575.7 244V241H572.7V244H575.7ZM614.5 244H617.5V241H614.5V244ZM614.5 246H581V252H614.5V246ZM578 249V277H584V249H578ZM581 280H613.3V274H581V280ZM610.3 277V282H616.3V277H610.3ZM613.3 279H581V285H613.3V279ZM578 282V314H584V282H578ZM581 311H575.7V317H581V311ZM578.7 314V244H572.7V314H578.7ZM575.7 247H614.5V241H575.7V247ZM611.5 244V249H617.5V244H611.5ZM654.858 312.1C641.869 312.1 631.558 302.098 631.558 289H625.558C625.558 305.502 638.646 318.1 654.858 318.1V312.1ZM631.558 289C631.558 275.902 641.869 265.9 654.858 265.9V259.9C638.646 259.9 625.558 272.498 625.558 289H631.558ZM654.858 265.9C667.739 265.9 678.058 275.894 678.058 289H684.058C684.058 272.506 670.977 259.9 654.858 259.9V265.9ZM678.058 289C678.058 302.106 667.739 312.1 654.858 312.1V318.1C670.977 318.1 684.058 305.494 684.058 289H678.058ZM654.858 313.3C668.452 313.3 678.958 302.52 678.958 289H672.958C672.958 299.28 665.064 307.3 654.858 307.3V313.3ZM678.958 289C678.958 275.48 668.452 264.7 654.858 264.7V270.7C665.064 270.7 672.958 278.72 672.958 289H678.958ZM654.858 264.7C641.283 264.7 630.658 275.462 630.658 289H636.658C636.658 278.738 644.633 270.7 654.858 270.7V264.7ZM630.658 289C630.658 302.538 641.283 313.3 654.858 313.3V307.3C644.633 307.3 636.658 299.262 636.658 289H630.658ZM721.491 312.1C708.502 312.1 698.191 302.098 698.191 289H692.191C692.191 305.502 705.279 318.1 721.491 318.1V312.1ZM698.191 289C698.191 275.902 708.502 265.9 721.491 265.9V259.9C705.279 259.9 692.191 272.498 692.191 289H698.191ZM721.491 265.9C734.371 265.9 744.691 275.894 744.691 289H750.691C750.691 272.506 737.61 259.9 721.491 259.9V265.9ZM744.691 289C744.691 302.106 734.371 312.1 721.491 312.1V318.1C737.61 318.1 750.691 305.494 750.691 289H744.691ZM721.491 313.3C735.084 313.3 745.591 302.52 745.591 289H739.591C739.591 299.28 731.697 307.3 721.491 307.3V313.3ZM745.591 289C745.591 275.48 735.084 264.7 721.491 264.7V270.7C731.697 270.7 739.591 278.72 739.591 289H745.591ZM721.491 264.7C707.915 264.7 697.291 275.462 697.291 289H703.291C703.291 278.738 711.266 270.7 721.491 270.7V264.7ZM697.291 289C697.291 302.538 707.915 313.3 721.491 313.3V307.3C711.266 307.3 703.291 299.262 703.291 289H697.291ZM789.847 268.9V271.9H792.847V268.9H789.847ZM774.947 268.9V265.9H771.947V268.9H774.947ZM789.847 309.5H792.847V306.224L789.583 306.512L789.847 309.5ZM789.847 314L790.3 316.966L792.847 316.577V314H789.847ZM769.847 268.9H772.847V265.9H769.847V268.9ZM758.847 268.9H755.847V271.9H758.847V268.9ZM758.847 264V261H755.847V264H758.847ZM769.847 264V267H772.847V264H769.847ZM769.847 251.5L769 248.622L766.847 249.255V251.5H769.847ZM774.947 250H777.947V245.991L774.1 247.122L774.947 250ZM774.947 264H771.947V267H774.947V264ZM789.847 264H792.847V261H789.847V264ZM789.847 265.9H774.947V271.9H789.847V265.9ZM771.947 268.9V301.4H777.947V268.9H771.947ZM771.947 301.4C771.947 303.818 772.261 305.992 773.139 307.81C774.071 309.739 775.54 311.061 777.402 311.85C779.149 312.59 781.143 312.819 783.168 312.851C785.215 312.884 787.56 312.713 790.111 312.488L789.583 306.512C787.034 306.737 784.966 306.879 783.263 306.852C781.538 306.825 780.445 306.623 779.742 306.325C779.154 306.076 778.81 305.755 778.542 305.2C778.22 304.533 777.947 303.382 777.947 301.4H771.947ZM786.847 309.5V314H792.847V309.5H786.847ZM789.394 311.034C782.989 312.012 778.88 311.563 776.454 310.138C774.347 308.901 772.847 306.499 772.847 301.4H766.847C766.847 307.701 768.796 312.599 773.415 315.312C777.713 317.837 783.605 317.988 790.3 316.966L789.394 311.034ZM772.847 301.4V268.9H766.847V301.4H772.847ZM769.847 265.9H758.847V271.9H769.847V265.9ZM761.847 268.9V264H755.847V268.9H761.847ZM758.847 267H769.847V261H758.847V267ZM772.847 264V251.5H766.847V264H772.847ZM770.693 254.378L775.793 252.878L774.1 247.122L769 248.622L770.693 254.378ZM771.947 250V264H777.947V250H771.947ZM774.947 267H789.847V261H774.947V267ZM786.847 264V268.9H792.847V264H786.847ZM813.645 287.3V284.3H810.645V287.3H813.645ZM813.645 314V317H816.645V314H813.645ZM808.345 314H805.345V317H808.345V314ZM808.345 244V241H805.345V244H808.345ZM813.645 249V246H810.645V249H813.645ZM813.645 282.3H810.645V285.3H813.645V282.3ZM832.145 247C843.088 247 850.945 254.957 850.945 265.7H856.945C856.945 251.643 846.401 241 832.145 241V247ZM850.945 265.7C850.945 276.334 843.097 284.3 832.145 284.3V290.3C846.392 290.3 856.945 279.666 856.945 265.7H850.945ZM832.145 284.3H813.645V290.3H832.145V284.3ZM810.645 287.3V314H816.645V287.3H810.645ZM813.645 311H808.345V317H813.645V311ZM811.345 314V244H805.345V314H811.345ZM808.345 247H832.145V241H808.345V247ZM832.145 285.3C843.425 285.3 851.645 276.933 851.645 265.7H845.645C845.645 273.667 840.064 279.3 832.145 279.3V285.3ZM851.645 265.7C851.645 254.379 843.437 246 832.145 246V252C840.052 252 845.645 257.621 845.645 265.7H851.645ZM832.145 246H813.645V252H832.145V246ZM810.645 249V282.3H816.645V249H810.645ZM813.645 285.3H832.145V279.3H813.645V285.3ZM875.559 273.8H872.559L878.315 274.986L875.559 273.8ZM892.259 263.3H895.259V260.3H892.259V263.3ZM892.259 268.1V271.1H895.259V268.1H892.259ZM875.559 314V317H878.559V314H875.559ZM870.559 314H867.559V317H870.559V314ZM870.559 264V261H867.559V264H870.559ZM875.559 264H878.559V261H875.559V264ZM878.315 274.986C879.771 271.602 881.814 269.496 884.109 268.2C886.445 266.881 889.227 266.3 892.259 266.3V260.3C888.492 260.3 884.624 261.019 881.159 262.975C877.654 264.954 874.747 268.098 872.804 272.614L878.315 274.986ZM889.259 263.3V268.1H895.259V263.3H889.259ZM892.259 265.1C887.365 265.1 882.395 266.611 878.626 270.168C874.815 273.763 872.559 279.138 872.559 286.2H878.559C878.559 280.462 880.354 276.787 882.743 274.532C885.173 272.239 888.554 271.1 892.259 271.1V265.1ZM872.559 286.2V314H878.559V286.2H872.559ZM875.559 311H870.559V317H875.559V311ZM873.559 314V264H867.559V314H873.559ZM870.559 267H875.559V261H870.559V267ZM872.559 264V273.8H878.559V264H872.559ZM907.895 314H904.895V317H907.895V314ZM907.895 264V261H904.895V264H907.895ZM912.895 264H915.895V261H912.895V264ZM912.895 314V317H915.895V314H912.895ZM910.395 248.9C909.852 248.9 909.395 248.443 909.395 247.9H903.395C903.395 251.757 906.538 254.9 910.395 254.9V248.9ZM909.395 247.9C909.395 247.721 909.473 247.499 909.673 247.302C909.87 247.108 910.127 247 910.395 247V241C906.588 241 903.395 244.094 903.395 247.9H909.395ZM910.395 247C910.663 247 910.92 247.108 911.118 247.302C911.318 247.499 911.395 247.721 911.395 247.9H917.395C917.395 244.094 914.203 241 910.395 241V247ZM911.395 247.9C911.395 248.443 910.938 248.9 910.395 248.9V254.9C914.252 254.9 917.395 251.757 917.395 247.9H911.395ZM910.895 314V264H904.895V314H910.895ZM907.895 267H912.895V261H907.895V267ZM909.895 264V314H915.895V264H909.895ZM912.895 311H907.895V317H912.895V311ZM976.105 314V317H979.105V314H976.105ZM971.005 314H968.005V317H971.005V314ZM938.805 314V317H941.805V314H938.805ZM933.805 314H930.805V317H933.805V314ZM933.805 264V261H930.805V264H933.805ZM938.805 264H941.805V261H938.805V264ZM938.805 273.5H935.805L941.474 274.87L938.805 273.5ZM956.705 265.9C961.971 265.9 965.996 267.631 968.708 270.445C971.433 273.271 973.105 277.472 973.105 282.9H979.105C979.105 276.228 977.028 270.429 973.028 266.28C969.015 262.119 963.34 259.9 956.705 259.9V265.9ZM973.105 282.9V314H979.105V282.9H973.105ZM976.105 311H971.005V317H976.105V311ZM974.005 314V282.9H968.005V314H974.005ZM974.005 282.9C974.005 277.736 972.511 273.129 969.363 269.791C966.19 266.429 961.664 264.7 956.305 264.7V270.7C960.347 270.7 963.171 271.971 964.998 273.909C966.849 275.871 968.005 278.864 968.005 282.9H974.005ZM956.305 264.7C950.745 264.7 945.531 266.529 941.714 270.512C937.902 274.491 935.805 280.282 935.805 287.6H941.805C941.805 281.418 943.559 277.259 946.047 274.663C948.53 272.071 952.066 270.7 956.305 270.7V264.7ZM935.805 287.6V314H941.805V287.6H935.805ZM938.805 311H933.805V317H938.805V311ZM936.805 314V264H930.805V314H936.805ZM933.805 267H938.805V261H933.805V267ZM935.805 264V273.5H941.805V264H935.805ZM941.474 274.87C944.694 268.6 949.978 265.9 956.705 265.9V259.9C948.033 259.9 940.517 263.6 936.137 272.13L941.474 274.87ZM1021.35 268.9V271.9H1024.35V268.9H1021.35ZM1006.45 268.9V265.9H1003.45V268.9H1006.45ZM1021.35 309.5H1024.35V306.224L1021.09 306.512L1021.35 309.5ZM1021.35 314L1021.8 316.966L1024.35 316.577V314H1021.35ZM1001.35 268.9H1004.35V265.9H1001.35V268.9ZM990.351 268.9H987.351V271.9H990.351V268.9ZM990.351 264V261H987.351V264H990.351ZM1001.35 264V267H1004.35V264H1001.35ZM1001.35 251.5L1000.5 248.622L998.351 249.255V251.5H1001.35ZM1006.45 250H1009.45V245.991L1005.6 247.122L1006.45 250ZM1006.45 264H1003.45V267H1006.45V264ZM1021.35 264H1024.35V261H1021.35V264ZM1021.35 265.9H1006.45V271.9H1021.35V265.9ZM1003.45 268.9V301.4H1009.45V268.9H1003.45ZM1003.45 301.4C1003.45 303.818 1003.77 305.992 1004.64 307.81C1005.58 309.739 1007.04 311.061 1008.91 311.85C1010.65 312.59 1012.65 312.819 1014.67 312.851C1016.72 312.884 1019.06 312.713 1021.61 312.488L1021.09 306.512C1018.54 306.737 1016.47 306.879 1014.77 306.852C1013.04 306.825 1011.95 306.623 1011.25 306.325C1010.66 306.076 1010.31 305.755 1010.05 305.2C1009.72 304.533 1009.45 303.382 1009.45 301.4H1003.45ZM1018.35 309.5V314H1024.35V309.5H1018.35ZM1020.9 311.034C1014.49 312.012 1010.38 311.563 1007.96 310.138C1005.85 308.901 1004.35 306.499 1004.35 301.4H998.351C998.351 307.701 1000.3 312.599 1004.92 315.312C1009.22 317.837 1015.11 317.988 1021.8 316.966L1020.9 311.034ZM1004.35 301.4V268.9H998.351V301.4H1004.35ZM1001.35 265.9H990.351V271.9H1001.35V265.9ZM993.351 268.9V264H987.351V268.9H993.351ZM990.351 267H1001.35V261H990.351V267ZM1004.35 264V251.5H998.351V264H1004.35ZM1002.2 254.378L1007.3 252.878L1005.6 247.122L1000.5 248.622L1002.2 254.378ZM1003.45 250V264H1009.45V250H1003.45ZM1006.45 267H1021.35V261H1006.45V267ZM1018.35 264V268.9H1024.35V264H1018.35ZM1032.62 304L1031.11 301.406L1028.92 302.68L1029.81 305.053L1032.62 304ZM1036.92 301.5L1039.77 300.551L1038.6 297.053L1035.41 298.906L1036.92 301.5ZM1068.22 272.9L1069.71 275.505L1072.06 274.161L1070.96 271.686L1068.22 272.9ZM1064.02 275.3L1061.24 276.423L1062.53 279.61L1065.51 277.905L1064.02 275.3ZM1036.22 277.1C1036.22 279.391 1036.89 281.373 1038.13 283.022C1039.33 284.618 1040.94 285.74 1042.61 286.578C1045.81 288.192 1050.05 289.13 1053.61 290.064C1057.43 291.066 1060.7 292.104 1063.04 293.781C1065.14 295.297 1066.52 297.353 1066.52 300.9H1072.52C1072.52 295.297 1070.11 291.478 1066.54 288.909C1063.19 286.503 1058.89 285.246 1055.13 284.261C1051.12 283.207 1047.78 282.464 1045.3 281.219C1044.13 280.627 1043.38 280.024 1042.92 279.417C1042.5 278.861 1042.22 278.159 1042.22 277.1H1036.22ZM1066.52 300.9C1066.52 306.868 1061.31 312.1 1051.62 312.1V318.1C1063.34 318.1 1072.52 311.332 1072.52 300.9H1066.52ZM1051.62 312.1C1042.6 312.1 1037.3 307.943 1035.43 302.947L1029.81 305.053C1032.74 312.857 1040.64 318.1 1051.62 318.1V312.1ZM1034.13 306.594L1038.43 304.094L1035.41 298.906L1031.11 301.406L1034.13 306.594ZM1034.08 302.449C1036.4 309.423 1043.24 313.3 1051.62 313.3V307.3C1045 307.3 1041.04 304.377 1039.77 300.551L1034.08 302.449ZM1051.62 313.3C1055.51 313.3 1059.37 312.448 1062.36 310.461C1065.46 308.395 1067.52 305.147 1067.52 300.9H1061.52C1061.52 302.953 1060.63 304.405 1059.04 305.464C1057.32 306.602 1054.73 307.3 1051.62 307.3V313.3ZM1067.52 300.9C1067.52 298.595 1066.86 296.598 1065.63 294.93C1064.44 293.312 1062.83 292.167 1061.16 291.308C1057.94 289.652 1053.71 288.693 1050.14 287.749C1046.31 286.739 1043.03 285.709 1040.69 284.052C1038.58 282.556 1037.22 280.55 1037.22 277.1H1031.22C1031.22 282.65 1033.65 286.419 1037.22 288.948C1040.56 291.316 1044.86 292.561 1048.61 293.551C1052.61 294.607 1055.95 295.373 1058.41 296.642C1059.58 297.245 1060.34 297.863 1060.8 298.492C1061.23 299.071 1061.52 299.805 1061.52 300.9H1067.52ZM1037.22 277.1C1037.22 271.261 1042.24 265.9 1051.22 265.9V259.9C1039.8 259.9 1031.22 267.139 1031.22 277.1H1037.22ZM1051.22 265.9C1058.32 265.9 1063.33 269.258 1065.48 274.114L1070.96 271.686C1067.71 264.342 1060.33 259.9 1051.22 259.9V265.9ZM1066.73 270.295L1062.53 272.695L1065.51 277.905L1069.71 275.505L1066.73 270.295ZM1066.8 274.177C1064.1 267.481 1057.5 264.7 1051.22 264.7V270.7C1055.94 270.7 1059.74 272.719 1061.24 276.423L1066.8 274.177ZM1051.22 264.7C1047.49 264.7 1043.83 265.671 1041.01 267.729C1038.12 269.844 1036.22 273.062 1036.22 277.1H1042.22C1042.22 275.138 1043.07 273.656 1044.55 272.571C1046.12 271.429 1048.45 270.7 1051.22 270.7V264.7Z" fill="#202020" mask="url(#path-25-outside-1_402_2)"/>
</svg>
